<svg width="110" height="21" viewBox="0 0 110 21" fill="none" xmlns="http://www.w3.org/2000/svg">
<path d="M0.464844 1.16797C0.457031 0.964844 0.476562 0.800781 0.523438 0.675781C0.570312 0.550781 0.667969 0.453125 0.816406 0.382812C0.972656 0.3125 1.19141 0.265625 1.47266 0.242188C1.75391 0.210937 2.12891 0.195312 2.59766 0.195312C2.73047 0.195312 2.85547 0.195312 2.97266 0.195312C3.09766 0.195312 3.21484 0.199219 3.32422 0.207031H8.02344C8.22656 0.207031 8.38281 0.222656 8.49219 0.253906C8.60938 0.285156 8.69141 0.34375 8.73828 0.429688C8.79297 0.515625 8.82422 0.632812 8.83203 0.78125C8.84766 0.929688 8.85547 1.12109 8.85547 1.35547C8.85547 1.58984 8.84766 1.78516 8.83203 1.94141C8.82422 2.08984 8.79297 2.20703 8.73828 2.29297C8.69141 2.37109 8.60938 2.42578 8.49219 2.45703C8.38281 2.48828 8.22656 2.50391 8.02344 2.50391H4.69531L4.48438 9.69922H7.30859C7.51172 9.69922 7.66797 9.71484 7.77734 9.74609C7.89453 9.77734 7.97656 9.83594 8.02344 9.92188C8.07812 10 8.10938 10.1133 8.11719 10.2617C8.13281 10.4023 8.14062 10.5859 8.14062 10.8125C8.14062 11.0391 8.13281 11.2266 8.11719 11.375C8.10938 11.5156 8.07812 11.6289 8.02344 11.7148C7.97656 11.793 7.89453 11.8477 7.77734 11.8789C7.66797 11.9102 7.51172 11.9258 7.30859 11.9258H4.42578L4.21484 19.2617C4.21484 19.418 4.19531 19.543 4.15625 19.6367C4.125 19.7305 4.05078 19.8047 3.93359 19.8594C3.82422 19.9141 3.66406 19.9531 3.45312 19.9766C3.24219 19.9922 2.95703 20 2.59766 20C2.23828 20 1.94922 19.9922 1.73047 19.9766C1.51953 19.9609 1.35938 19.9258 1.25 19.8711C1.14062 19.8164 1.06641 19.7383 1.02734 19.6367C0.996094 19.5273 0.976562 19.3828 0.96875 19.2031L0.464844 1.16797ZM12.957 4.0625C12.5742 4.0625 12.2656 4.05469 12.0312 4.03906C11.8047 4.02344 11.6289 3.99219 11.5039 3.94531C11.3867 3.89844 11.3047 3.83203 11.2578 3.74609C11.2188 3.66016 11.1992 3.54297 11.1992 3.39453L11.0586 1.10938C11.0586 0.945312 11.0742 0.808594 11.1055 0.699219C11.1445 0.582031 11.2305 0.492187 11.3633 0.429688C11.4961 0.367188 11.6875 0.324219 11.9375 0.300781C12.1953 0.269531 12.5352 0.253906 12.957 0.253906C13.3789 0.253906 13.7148 0.269531 13.9648 0.300781C14.2227 0.324219 14.418 0.367188 14.5508 0.429688C14.6836 0.492187 14.7656 0.582031 14.7969 0.699219C14.8359 0.808594 14.8555 0.945312 14.8555 1.10938L14.7266 3.39453C14.7266 3.54297 14.7031 3.66016 14.6562 3.74609C14.6172 3.83203 14.5352 3.89844 14.4102 3.94531C14.2852 3.99219 14.1055 4.02344 13.8711 4.03906C13.6445 4.05469 13.3398 4.0625 12.957 4.0625ZM10.9883 6.76953C10.9883 6.60547 11.0039 6.46875 11.0352 6.35938C11.0742 6.24219 11.1602 6.15234 11.293 6.08984C11.4258 6.02734 11.6172 5.98438 11.8672 5.96094C12.125 5.92969 12.4648 5.91406 12.8867 5.91406C13.3086 5.91406 13.6445 5.92969 13.8945 5.96094C14.1523 5.98438 14.3477 6.02734 14.4805 6.08984C14.6133 6.15234 14.6953 6.24219 14.7266 6.35938C14.7656 6.46875 14.7852 6.60547 14.7852 6.76953L14.4219 19.332C14.4219 19.4805 14.4023 19.5977 14.3633 19.6836C14.3242 19.7695 14.25 19.8359 14.1406 19.8828C14.0312 19.9297 13.875 19.9609 13.6719 19.9766C13.4766 19.9922 13.2148 20 12.8867 20C12.5586 20 12.293 19.9922 12.0898 19.9766C11.8945 19.9609 11.7422 19.9297 11.6328 19.8828C11.5312 19.8359 11.4609 19.7695 11.4219 19.6836C11.3828 19.5977 11.3633 19.4805 11.3633 19.332L10.9883 6.76953ZM17.6445 6.76953C17.6445 6.60547 17.6602 6.46875 17.6914 6.35938C17.7305 6.24219 17.8086 6.15234 17.9258 6.08984C18.0508 6.02734 18.2305 5.98438 18.4648 5.96094C18.707 5.92969 19.0273 5.91406 19.4258 5.91406C19.8242 5.91406 20.1406 5.92969 20.375 5.96094C20.6172 5.98438 20.7969 6.02734 20.9141 6.08984C21.0391 6.15234 21.1172 6.24219 21.1484 6.35938C21.1875 6.46875 21.207 6.60547 21.207 6.76953L21.1836 7.48438C21.4023 7.23438 21.625 7.00781 21.8516 6.80469C22.0859 6.59375 22.332 6.41406 22.5898 6.26562C22.8555 6.10938 23.1367 5.98828 23.4336 5.90234C23.7305 5.81641 24.0547 5.77344 24.4062 5.77344C24.8828 5.77344 25.3242 5.85938 25.7305 6.03125C26.1445 6.20312 26.4961 6.45312 26.7852 6.78125C27.082 7.10938 27.3086 7.50781 27.4648 7.97656C27.6289 8.44531 27.7031 8.97656 27.6875 9.57031L27.4062 19.332C27.4062 19.4805 27.3867 19.5977 27.3477 19.6836C27.3086 19.7695 27.2344 19.8359 27.125 19.8828C27.0156 19.9297 26.8594 19.9609 26.6562 19.9766C26.4609 19.9922 26.1992 20 25.8711 20C25.543 20 25.2773 19.9922 25.0742 19.9766C24.8789 19.9609 24.7266 19.9297 24.6172 19.8828C24.5156 19.8359 24.4453 19.7695 24.4062 19.6836C24.3672 19.5977 24.3477 19.4805 24.3477 19.332L24.0781 9.91016C24.0703 9.60547 24.0312 9.35156 23.9609 9.14844C23.8906 8.94531 23.7969 8.78516 23.6797 8.66797C23.5625 8.55078 23.4219 8.46875 23.2578 8.42188C23.1016 8.375 22.9297 8.35156 22.7422 8.35156C22.4453 8.35156 22.1836 8.43359 21.957 8.59766C21.7305 8.76172 21.5352 8.95703 21.3711 9.18359L21.0781 19.332C21.0781 19.4805 21.0586 19.5977 21.0195 19.6836C20.9805 19.7695 20.9062 19.8359 20.7969 19.8828C20.6875 19.9297 20.5312 19.9609 20.3281 19.9766C20.1328 19.9922 19.8711 20 19.543 20C19.2148 20 18.9492 19.9922 18.7461 19.9766C18.5508 19.9609 18.3984 19.9297 18.2891 19.8828C18.1875 19.8359 18.1172 19.7695 18.0781 19.6836C18.0391 19.5977 18.0195 19.4805 18.0195 19.332L17.6445 6.76953ZM30.1602 16.5898C30.1523 16.1523 30.2461 15.7695 30.4414 15.4414C30.6367 15.1055 30.8867 14.8125 31.1914 14.5625C31.5039 14.3125 31.8555 14.1016 32.2461 13.9297C32.6367 13.75 33.0234 13.5977 33.4062 13.4727C33.8984 13.3086 34.418 13.168 34.9648 13.0508C35.5195 12.9336 36.0586 12.832 36.582 12.7461L36.4766 8.86719C36.4609 8.4375 36.3516 8.12109 36.1484 7.91797C35.9531 7.70703 35.6406 7.60156 35.2109 7.60156C35.0078 7.60156 34.8242 7.61719 34.6602 7.64844C34.4961 7.67969 34.3516 7.74219 34.2266 7.83594C34.1094 7.92969 34.0156 8.05859 33.9453 8.22266C33.875 8.38672 33.8359 8.59766 33.8281 8.85547L33.7461 11.5156C33.7461 11.6641 33.7227 11.7812 33.6758 11.8672C33.6367 11.9531 33.5547 12.0195 33.4297 12.0664C33.3047 12.1133 33.125 12.1445 32.8906 12.1602C32.6641 12.1758 32.3594 12.1836 31.9766 12.1836C31.625 12.1836 31.3398 12.1758 31.1211 12.1602C30.9023 12.1445 30.7344 12.1133 30.6172 12.0664C30.5 12.0195 30.4219 11.9531 30.3828 11.8672C30.3438 11.7812 30.3203 11.6641 30.3125 11.5156L30.2188 9.01953C30.2031 8.60547 30.2734 8.23828 30.4297 7.91797C30.5859 7.58984 30.7969 7.30859 31.0625 7.07422C31.3359 6.83203 31.6445 6.62891 31.9883 6.46484C32.3398 6.30078 32.7031 6.16797 33.0781 6.06641C33.4609 5.95703 33.8398 5.88281 34.2148 5.84375C34.5898 5.79688 34.9336 5.77344 35.2461 5.77344C35.918 5.77344 36.5547 5.85156 37.1562 6.00781C37.7656 6.15625 38.2969 6.375 38.75 6.66406C39.2031 6.95312 39.5586 7.30859 39.8164 7.73047C40.082 8.14453 40.207 8.62109 40.1914 9.16016L39.8281 19.332C39.8203 19.4805 39.7969 19.5977 39.7578 19.6836C39.7266 19.7695 39.6562 19.8359 39.5469 19.8828C39.4375 19.9297 39.2812 19.9609 39.0781 19.9766C38.8828 19.9922 38.6211 20 38.293 20C37.9883 20 37.7422 19.9922 37.5547 19.9766C37.375 19.9609 37.2344 19.9297 37.1328 19.8828C37.0391 19.8359 36.9727 19.7695 36.9336 19.6836C36.9023 19.5977 36.8867 19.4805 36.8867 19.332L36.875 18.9219C36.6641 19.0781 36.4336 19.2305 36.1836 19.3789C35.9336 19.5195 35.668 19.6484 35.3867 19.7656C35.1055 19.875 34.8047 19.9648 34.4844 20.0352C34.1719 20.1055 33.8438 20.1406 33.5 20.1406C32.9531 20.1406 32.4727 20.0664 32.0586 19.918C31.6445 19.7617 31.2969 19.5547 31.0156 19.2969C30.7422 19.0312 30.5352 18.7227 30.3945 18.3711C30.2539 18.0117 30.1797 17.6289 30.1719 17.2227L30.1602 16.5898ZM33.3711 16.8711C33.3711 17.1055 33.4062 17.3086 33.4766 17.4805C33.5469 17.6445 33.6406 17.7812 33.7578 17.8906C33.875 17.9922 34.0117 18.0703 34.168 18.125C34.332 18.1719 34.5078 18.1953 34.6953 18.1953C35.1484 18.1953 35.5391 18.1211 35.8672 17.9727C36.1953 17.8242 36.4766 17.6523 36.7109 17.457L36.6289 14.4453C36.207 14.5156 35.8359 14.5977 35.5156 14.6914C35.1953 14.7773 34.9102 14.875 34.6602 14.9844C34.2695 15.1641 33.957 15.3633 33.7227 15.582C33.4883 15.793 33.3711 16.0703 33.3711 16.4141V16.8711ZM43.0273 6.76953C43.0273 6.60547 43.043 6.46875 43.0742 6.35938C43.1133 6.24219 43.1914 6.15234 43.3086 6.08984C43.4336 6.02734 43.6133 5.98438 43.8477 5.96094C44.0898 5.92969 44.4102 5.91406 44.8086 5.91406C45.207 5.91406 45.5234 5.92969 45.7578 5.96094C46 5.98438 46.1797 6.02734 46.2969 6.08984C46.4219 6.15234 46.5 6.24219 46.5312 6.35938C46.5703 6.46875 46.5898 6.60547 46.5898 6.76953L46.5664 7.48438C46.7852 7.23438 47.0078 7.00781 47.2344 6.80469C47.4688 6.59375 47.7148 6.41406 47.9727 6.26562C48.2383 6.10938 48.5195 5.98828 48.8164 5.90234C49.1133 5.81641 49.4375 5.77344 49.7891 5.77344C50.2656 5.77344 50.707 5.85938 51.1133 6.03125C51.5273 6.20312 51.8789 6.45312 52.168 6.78125C52.4648 7.10938 52.6914 7.50781 52.8477 7.97656C53.0117 8.44531 53.0859 8.97656 53.0703 9.57031L52.7891 19.332C52.7891 19.4805 52.7695 19.5977 52.7305 19.6836C52.6914 19.7695 52.6172 19.8359 52.5078 19.8828C52.3984 19.9297 52.2422 19.9609 52.0391 19.9766C51.8438 19.9922 51.582 20 51.2539 20C50.9258 20 50.6602 19.9922 50.457 19.9766C50.2617 19.9609 50.1094 19.9297 50 19.8828C49.8984 19.8359 49.8281 19.7695 49.7891 19.6836C49.75 19.5977 49.7305 19.4805 49.7305 19.332L49.4609 9.91016C49.4531 9.60547 49.4141 9.35156 49.3438 9.14844C49.2734 8.94531 49.1797 8.78516 49.0625 8.66797C48.9453 8.55078 48.8047 8.46875 48.6406 8.42188C48.4844 8.375 48.3125 8.35156 48.125 8.35156C47.8281 8.35156 47.5664 8.43359 47.3398 8.59766C47.1133 8.76172 46.918 8.95703 46.7539 9.18359L46.4609 19.332C46.4609 19.4805 46.4414 19.5977 46.4023 19.6836C46.3633 19.7695 46.2891 19.8359 46.1797 19.8828C46.0703 19.9297 45.9141 19.9609 45.7109 19.9766C45.5156 19.9922 45.2539 20 44.9258 20C44.5977 20 44.332 19.9922 44.1289 19.9766C43.9336 19.9609 43.7812 19.9297 43.6719 19.8828C43.5703 19.8359 43.5 19.7695 43.4609 19.6836C43.4219 19.5977 43.4023 19.4805 43.4023 19.332L43.0273 6.76953ZM55.5664 9.33594C55.543 8.71094 55.668 8.17578 55.9414 7.73047C56.2227 7.27734 56.5977 6.90625 57.0664 6.61719C57.543 6.32812 58.0898 6.11719 58.707 5.98438C59.3242 5.84375 59.957 5.77344 60.6055 5.77344C61.2695 5.77344 61.9102 5.84375 62.5273 5.98438C63.1445 6.11719 63.6875 6.32812 64.1562 6.61719C64.625 6.90625 64.9961 7.27734 65.2695 7.73047C65.543 8.17578 65.668 8.71094 65.6445 9.33594L65.5273 12.9805C65.5195 13.1289 65.4922 13.2461 65.4453 13.332C65.3984 13.418 65.3125 13.4844 65.1875 13.5312C65.0625 13.5781 64.8867 13.6094 64.6602 13.625C64.4336 13.6406 64.1406 13.6484 63.7812 13.6484C63.4141 13.6484 63.1172 13.6406 62.8906 13.625C62.6641 13.6094 62.4883 13.5781 62.3633 13.5312C62.2383 13.4844 62.1523 13.418 62.1055 13.332C62.0664 13.2461 62.043 13.1289 62.0352 12.9805L61.9297 9.13672C61.9219 8.80859 61.8828 8.54297 61.8125 8.33984C61.75 8.13672 61.6602 7.98047 61.543 7.87109C61.4258 7.76172 61.2891 7.69141 61.1328 7.66016C60.9766 7.62109 60.8008 7.60156 60.6055 7.60156C60.4102 7.60156 60.2344 7.62109 60.0781 7.66016C59.9219 7.69141 59.7852 7.76172 59.668 7.87109C59.5508 7.98047 59.457 8.13672 59.3867 8.33984C59.3242 8.54297 59.2891 8.80859 59.2812 9.13672L59.0469 16.8594C59.0391 17.1562 59.0625 17.4062 59.1172 17.6094C59.1797 17.8125 59.2734 17.9766 59.3984 18.1016C59.5312 18.2266 59.6953 18.3164 59.8906 18.3711C60.0938 18.4258 60.332 18.4531 60.6055 18.4531C61.1523 18.4531 61.5469 18.3438 61.7891 18.125C62.0391 17.9062 62.1641 17.5195 62.1641 16.9648V16.6016C62.1641 16.4531 62.1836 16.332 62.2227 16.2383C62.2617 16.1367 62.3359 16.0586 62.4453 16.0039C62.5625 15.9414 62.7266 15.8984 62.9375 15.875C63.1484 15.8516 63.4297 15.8398 63.7812 15.8398C64.125 15.8398 64.4023 15.8516 64.6133 15.875C64.8242 15.8984 64.9844 15.9414 65.0938 16.0039C65.2109 16.0586 65.2891 16.1328 65.3281 16.2266C65.3672 16.3203 65.3867 16.4414 65.3867 16.5898V16.8711C65.3867 17.4883 65.25 18.0078 64.9766 18.4297C64.7031 18.8438 64.3438 19.1797 63.8984 19.4375C63.4531 19.6875 62.9453 19.8672 62.375 19.9766C61.8047 20.0859 61.2188 20.1406 60.6172 20.1406C60.0078 20.1406 59.4219 20.0859 58.8594 19.9766C58.2969 19.8594 57.793 19.6719 57.3477 19.4141C56.9102 19.1484 56.5547 18.8008 56.2812 18.3711C56.0078 17.9414 55.8594 17.4062 55.8359 16.7656L55.5664 9.33594ZM68.0117 9.33594C67.9883 8.71094 68.1172 8.17578 68.3984 7.73047C68.6875 7.27734 69.0703 6.90625 69.5469 6.61719C70.0312 6.32812 70.582 6.11719 71.1992 5.98438C71.8242 5.84375 72.4609 5.77344 73.1094 5.77344C73.7266 5.77344 74.332 5.84375 74.9258 5.98438C75.5195 6.11719 76.0469 6.32812 76.5078 6.61719C76.9688 6.90625 77.332 7.27734 77.5977 7.73047C77.8711 8.17578 77.9961 8.71094 77.9727 9.33594L77.7969 13.6602C77.7891 13.8086 77.7617 13.9258 77.7148 14.0117C77.6758 14.0977 77.5977 14.1641 77.4805 14.2109C77.3633 14.2578 77.1953 14.2891 76.9766 14.3047C76.7656 14.3203 76.4844 14.3281 76.1328 14.3281H71.5625L71.4922 16.8594C71.4844 17.1562 71.5117 17.4062 71.5742 17.6094C71.6445 17.8125 71.7461 17.9766 71.8789 18.1016C72.0117 18.2266 72.1758 18.3164 72.3711 18.3711C72.5664 18.4258 72.7891 18.4531 73.0391 18.4531C73.5391 18.4531 73.9062 18.3438 74.1406 18.125C74.375 17.9062 74.4922 17.5195 74.4922 16.9648V16.6016C74.4922 16.4531 74.5117 16.332 74.5508 16.2383C74.5898 16.1367 74.6641 16.0586 74.7734 16.0039C74.8906 15.9414 75.0547 15.8984 75.2656 15.875C75.4766 15.8516 75.7578 15.8398 76.1094 15.8398C76.4531 15.8398 76.7305 15.8516 76.9414 15.875C77.1523 15.8984 77.3125 15.9414 77.4219 16.0039C77.5391 16.0586 77.6133 16.1328 77.6445 16.2266C77.6836 16.3203 77.7031 16.4414 77.7031 16.5898V17.1055C77.7031 17.7227 77.5703 18.2266 77.3047 18.6172C77.0391 19.0078 76.6875 19.3164 76.25 19.543C75.8203 19.7695 75.3242 19.9258 74.7617 20.0117C74.207 20.0977 73.6367 20.1406 73.0508 20.1406C72.457 20.1406 71.8789 20.0859 71.3164 19.9766C70.7539 19.8594 70.25 19.6719 69.8047 19.4141C69.3672 19.1484 69.0078 18.8008 68.7266 18.3711C68.4531 17.9414 68.3047 17.4062 68.2812 16.7656L68.0117 9.33594ZM74.4922 12.5703L74.375 9.13672C74.3672 8.80859 74.3281 8.54297 74.2578 8.33984C74.1953 8.13672 74.1055 7.98047 73.9883 7.87109C73.8789 7.76172 73.7461 7.69141 73.5898 7.66016C73.4414 7.62109 73.2812 7.60156 73.1094 7.60156C72.9141 7.60156 72.7344 7.62109 72.5703 7.66016C72.4062 7.69141 72.2617 7.76172 72.1367 7.87109C72.0195 7.98047 71.9219 8.13672 71.8438 8.33984C71.7734 8.54297 71.7344 8.80859 71.7266 9.13672L71.6211 12.5703H74.4922ZM80.6211 1.16797C80.6133 0.964844 80.6406 0.800781 80.7031 0.675781C80.7656 0.550781 80.875 0.453125 81.0312 0.382812C81.1953 0.3125 81.4141 0.265625 81.6875 0.242188C81.9688 0.210937 82.3242 0.195312 82.7539 0.195312C83.1445 0.195312 83.4727 0.207031 83.7383 0.230469C84.0039 0.246094 84.2188 0.277344 84.3828 0.324219C84.5547 0.371094 84.6836 0.4375 84.7695 0.523438C84.8633 0.609375 84.9297 0.714844 84.9688 0.839844L88.2266 10.8008H88.3555L91.5664 0.839844C91.5977 0.714844 91.6562 0.609375 91.7422 0.523438C91.8281 0.4375 91.9531 0.371094 92.1172 0.324219C92.2812 0.277344 92.4883 0.246094 92.7383 0.230469C92.9883 0.207031 93.2969 0.195312 93.6641 0.195312C94.125 0.195312 94.4961 0.210937 94.7773 0.242188C95.0586 0.265625 95.2773 0.3125 95.4336 0.382812C95.5898 0.453125 95.6914 0.550781 95.7383 0.675781C95.793 0.800781 95.8164 0.964844 95.8086 1.16797L95.293 19.2031C95.2852 19.3828 95.2656 19.5273 95.2344 19.6367C95.2031 19.7383 95.1328 19.8164 95.0234 19.8711C94.9219 19.9258 94.7734 19.9609 94.5781 19.9766C94.3828 19.9922 94.1172 20 93.7812 20C93.4531 20 93.1875 19.9922 92.9844 19.9766C92.7891 19.9609 92.6406 19.9258 92.5391 19.8711C92.4375 19.8164 92.3672 19.7383 92.3281 19.6367C92.2969 19.5273 92.2812 19.3828 92.2812 19.2031L92.3633 6.58203H92.2109L89.5156 15.9453C89.4688 16.0938 89.418 16.2148 89.3633 16.3086C89.3164 16.4023 89.2461 16.4766 89.1523 16.5312C89.0586 16.5781 88.9297 16.6094 88.7656 16.625C88.6094 16.6406 88.3984 16.6484 88.1328 16.6484C87.8984 16.6484 87.7109 16.6406 87.5703 16.625C87.4297 16.6016 87.3164 16.5664 87.2305 16.5195C87.1523 16.4648 87.0898 16.3945 87.043 16.3086C86.9961 16.2148 86.9492 16.0938 86.9023 15.9453L84.2422 6.58203H84.0898L84.1484 19.2031C84.1484 19.3828 84.1289 19.5273 84.0898 19.6367C84.0586 19.7383 83.9883 19.8164 83.8789 19.8711C83.7773 19.9258 83.6289 19.9609 83.4336 19.9766C83.2383 19.9922 82.9727 20 82.6367 20C82.3008 20 82.0352 19.9922 81.8398 19.9766C81.6445 19.9609 81.4922 19.9258 81.3828 19.8711C81.2812 19.8164 81.2148 19.7383 81.1836 19.6367C81.1523 19.5273 81.1328 19.3828 81.125 19.2031L80.6211 1.16797ZM98.7383 4.09766C98.7227 3.52734 98.8164 3.00391 99.0195 2.52734C99.2305 2.05078 99.5703 1.64062 100.039 1.29688C100.508 0.953125 101.117 0.683594 101.867 0.488281C102.617 0.292969 103.527 0.195312 104.598 0.195312H108.09C108.355 0.195312 108.559 0.210937 108.699 0.242188C108.84 0.265625 108.941 0.324219 109.004 0.417969C109.074 0.511719 109.113 0.644531 109.121 0.816406C109.129 0.988281 109.133 1.21875 109.133 1.50781C109.133 1.74219 109.121 1.92969 109.098 2.07031C109.074 2.21094 109.035 2.32031 108.98 2.39844C108.934 2.47656 108.863 2.52734 108.77 2.55078C108.684 2.57422 108.57 2.58594 108.43 2.58594H104.586C104.297 2.57812 104.043 2.58984 103.824 2.62109C103.613 2.64453 103.438 2.71094 103.297 2.82031C103.156 2.92969 103.051 3.08984 102.98 3.30078C102.91 3.50391 102.871 3.77734 102.863 4.12109L102.512 16.5312C102.504 16.8594 102.527 17.1328 102.582 17.3516C102.645 17.5703 102.742 17.7461 102.875 17.8789C103.008 18.0039 103.18 18.0938 103.391 18.1484C103.609 18.2031 103.871 18.2305 104.176 18.2305C104.48 18.2305 104.738 18.2031 104.949 18.1484C105.168 18.0938 105.344 18.0039 105.477 17.8789C105.617 17.7461 105.715 17.5703 105.77 17.3516C105.824 17.1328 105.848 16.8594 105.84 16.5312L105.629 9.00781C105.621 8.77344 105.645 8.58594 105.699 8.44531C105.754 8.29688 105.855 8.1875 106.004 8.11719C106.16 8.03906 106.371 7.98828 106.637 7.96484C106.902 7.94141 107.238 7.92969 107.645 7.92969C108.051 7.92969 108.379 7.94141 108.629 7.96484C108.879 7.98828 109.066 8.03906 109.191 8.11719C109.324 8.1875 109.41 8.29688 109.449 8.44531C109.488 8.58594 109.504 8.77344 109.496 9.00781L109.285 16.4492C109.27 16.957 109.164 17.4375 108.969 17.8906C108.773 18.3359 108.473 18.7266 108.066 19.0625C107.66 19.3984 107.137 19.6641 106.496 19.8594C105.855 20.0469 105.082 20.1406 104.176 20.1406C103.27 20.1406 102.496 20.043 101.855 19.8477C101.215 19.6523 100.691 19.3867 100.285 19.0508C99.8789 18.7148 99.5781 18.3203 99.3828 17.8672C99.1875 17.4141 99.082 16.9336 99.0664 16.4258L98.7383 4.09766Z" fill="white"/>
</svg>
